name C:\Users\u0101727\Documents\MyRepositories\upper-imu-dc\Results\main_tracking\Case_32\kinematics.mot
datacolumns 10
datarows 23
range 8.05000000 8.27000000
endheader 
time	clav_prot	clav_elev	scapula_abduction	scapula_elevation	scapula_upward_rot	scapula_winging	plane_elv	shoulder_elv	axial_rot	
          8.05000000	        -39.46275676	          4.93583252	        -22.74848178	         -4.23444771	         42.42191442	         -8.04908072	         29.66336226	         74.58044612	         -8.27869309	
          8.06000000	        -39.46277592	          4.88704733	        -23.13263201	         -4.20718626	         41.90143933	         -7.95051527	         29.70559861	         74.19076082	         -8.02334085	
          8.07000000	        -39.47304701	          4.85151383	        -23.51761345	         -4.17294479	         41.40523325	         -7.86341123	         29.73923996	         73.78906566	         -7.82781110	
          8.08000000	        -39.49033916	          4.82510404	        -23.89675270	         -4.13459221	         40.93372671	         -7.78517316	         29.75871257	         73.37855514	         -7.68227984	
          8.09000000	        -39.51142895	          4.80385894	        -24.26370688	         -4.09483909	         40.48702608	         -7.71320689	         29.75852363	         72.96228049	         -7.57412894	
          8.10000000	        -39.53357634	          4.78443986	        -24.61336480	         -4.05595243	         40.06489602	         -7.64528734	         29.73423709	         72.54278080	         -7.49039510	
          8.11000000	        -39.55479514	          4.76431361	        -24.94225607	         -4.01965413	         39.66684708	         -7.57975916	         29.68300362	         72.12190669	         -7.42022554	
          8.12000000	        -39.57391345	          4.74173091	        -25.24849152	         -3.98716203	         39.29231861	         -7.51558800	         29.60361820	         71.70079682	         -7.35717338	
          8.13000000	        -39.59049979	          4.71564860	        -25.53145237	         -3.95926724	         38.94089738	         -7.45233795	         29.49627053	         71.27991077	         -7.30129397	
          8.14000000	        -39.60474816	          4.68570684	        -25.79149846	         -3.93636161	         38.61245740	         -7.39013497	         29.36221694	         70.85907461	         -7.26083289	
          8.15000000	        -39.61737144	          4.65225271	        -26.02984841	         -3.91840833	         38.30711383	         -7.32961583	         29.20352090	         70.43757849	         -7.25299211	
          8.16000000	        -39.62949926	          4.61632260	        -26.24860416	         -3.90491221	         38.02497535	         -7.27182795	         29.02288306	         70.01437031	         -7.30318803	
          8.17000000	        -39.64255509	          4.57951334	        -26.45078006	         -3.89494855	         37.76579278	         -7.21806197	         28.82350995	         69.58831579	         -7.44248914	
          8.18000000	        -39.65809466	          4.54373728	        -26.64019648	         -3.88727408	         37.52865099	         -7.16963496	         28.60896985	         69.15843206	         -7.70329870	
          8.19000000	        -39.67760745	          4.51090889	        -26.82117471	         -3.88050442	         37.31181635	         -7.12766218	         28.38302488	         68.72400604	         -8.11361109	
          8.20000000	        -39.70230627	          4.48263727	        -26.99807006	         -3.87331578	         37.11277958	         -7.09286214	         28.14948284	         68.28455413	         -8.69038997	
          8.21000000	        -39.73294740	          4.46000136	        -27.17475513	         -3.86461832	         36.92847010	         -7.06543634	         27.91214079	         67.83963819	         -9.43296026	
          8.22000000	        -39.76972453	          4.44345857	        -27.35418558	         -3.85365981	         36.75557822	         -7.04504905	         27.67486160	         67.38861399	        -10.31779327	
          8.23000000	        -39.81225547	          4.43289016	        -27.53813742	         -3.84004679	         36.59090608	         -7.03090239	         27.44171995	         66.93043431	        -11.29648047	
          8.24000000	        -39.85963880	          4.42773693	        -27.72711851	         -3.82370245	         36.43167335	         -7.02186640	         27.21702108	         66.46363207	        -12.29866359	
          8.25000000	        -39.91052872	          4.42714617	        -27.92039152	         -3.80480274	         36.27571803	         -7.01660178	         27.00495327	         65.98655045	        -13.24079634	
          8.26000000	        -39.96318222	          4.43005409	        -28.11603692	         -3.78373459	         36.12155621	         -7.01362096	         26.80878008	         65.49777893	        -14.03960927	
          8.27000000	        -40.01546674	          4.43518349	        -28.31102394	         -3.76108984	         35.96830963	         -7.01127672	         26.62976177	         64.99663886	        -14.62676658	
